<svg width="6" height="5" viewBox="0 0 6 5" fill="none" xmlns="http://www.w3.org/2000/svg">
<path d="M4.89268 3.49412L4.89346 3.49432L4.89708 3.48231L5.37333 1.90122L5.37338 1.90123L5.37417 1.89827C5.48713 1.47447 5.36135 1.11549 5.10387 0.845009C4.8478 0.576011 4.46062 0.392639 4.03975 0.310463C3.6189 0.228292 3.15561 0.245604 2.74403 0.387755C2.3298 0.530821 1.96748 0.801109 1.76348 1.21855L1.75978 1.22611L1.75745 1.23394L1.68093 1.49052L1.28676 2.81233C1.12561 3.24627 1.22929 3.61664 1.48132 3.89581C1.73186 4.17332 2.12875 4.36183 2.56258 4.44563C2.99655 4.52946 3.47769 4.51052 3.90159 4.36194C4.32838 4.21234 4.69835 3.93018 4.89268 3.49412ZM3.0898 1.4359C3.10808 1.37701 3.1577 1.33419 3.25319 1.30915C3.35153 1.28336 3.4806 1.28328 3.60981 1.30737C3.7385 1.33135 3.85545 1.3771 3.93091 1.43218C4.01061 1.49035 4.01972 1.53829 4.00931 1.56762C3.89495 1.88995 3.63 2.63616 3.38067 3.31945C3.35239 3.39693 3.2865 3.45191 3.18689 3.48509C3.08465 3.51914 2.95545 3.52609 2.8304 3.50478C2.70531 3.48346 2.5958 3.43583 2.5285 3.3724C2.46322 3.31088 2.44116 3.23957 2.4694 3.15797C2.57445 2.85446 2.68368 2.56234 2.78452 2.29268L2.78541 2.29029C2.90641 1.96669 3.01599 1.67365 3.0898 1.4359Z" fill="#F7FEFF" stroke="#F7FEFF" stroke-width="0.196429"/>
<path d="M2.2704 2.96855C2.09859 3.72969 3.47028 3.91367 3.76854 3.25049L4.32438 1.76474C4.49619 1.0036 3.1245 0.819614 2.82624 1.4828L2.73979 1.71386M2.2704 2.96855L1.49206 2.81575M2.2704 2.96855L2.73979 1.71386M2.73979 1.71386L1.87136 1.55043M1.87136 1.55043L1.49 2.82126C0.915098 4.35795 3.99684 4.96957 4.68337 3.42266L5.14293 1.90611C5.54629 0.407714 2.66549 -0.178459 1.94521 1.30433L1.87136 1.55043Z" stroke="black" stroke-width="0.196512"/>
<path d="M4.6405 1.39728L4.75584 1.36513M4.28961 1.01444L4.36147 0.942426M3.69423 0.816857L3.70536 0.727078M3.04734 0.901042L2.98357 0.819344M2.54582 1.209L2.44137 1.164M2.85095 4.01946L2.86738 3.92751M2.22531 3.80668L2.29076 3.7398M1.82873 3.3899L1.94518 3.35479M3.60211 3.93273L3.53613 3.85695M4.14431 3.58807L4.03677 3.53932M4.35038 3.1453L4.23288 3.12319M4.49613 2.7197L4.37023 2.69601M4.63349 2.29252L4.50759 2.26883M4.77393 1.86909L4.65223 1.84618M2.06859 2.48462L1.94269 2.46093M2.20594 2.05744L2.08005 2.03375" stroke="black" stroke-width="0.0368656" stroke-linecap="round"/>
<path d="M3.30571 1.31174C3.27928 1.3165 3.25462 1.32245 3.25021 1.32483L3.30571 1.31174ZM3.30571 1.31174C3.3339 1.30638 3.39556 1.30281 3.45546 1.30281L3.30571 1.31174ZM3.31653 1.37177L3.31653 1.37178L3.3171 1.37167C3.33926 1.36746 3.39601 1.36381 3.45546 1.36381L3.45595 1.36381C3.52837 1.36323 3.56942 1.3661 3.61655 1.37418C3.65356 1.38102 3.70726 1.39396 3.7352 1.40337C3.76204 1.41273 3.80476 1.43254 3.82812 1.44666C3.85257 1.46273 3.88181 1.48667 3.89124 1.49753L3.89124 1.49753L3.8917 1.49806C3.90142 1.509 3.91903 1.53873 3.9277 1.56154C3.93495 1.58144 3.93765 1.59157 3.93892 1.60271C3.94034 1.61511 3.94029 1.6315 3.93811 1.66419L3.93809 1.66418L3.93803 1.66559C3.93574 1.7182 3.92797 1.75321 3.9004 1.83996C3.88021 1.90163 3.84161 2.01664 3.81519 2.09517C3.78909 2.17276 3.72956 2.33664 3.68455 2.45948C3.63886 2.58175 3.57233 2.75205 3.53588 2.83767C3.49918 2.92385 3.44148 3.0514 3.40771 3.12044C3.37337 3.19065 3.33066 3.26621 3.31342 3.28902L3.31342 3.28902L3.31305 3.28951C3.29308 3.31649 3.26718 3.3413 3.24337 3.35738C3.2212 3.37236 3.18604 3.39006 3.16853 3.39555L3.16853 3.39555L3.16792 3.39575C3.14902 3.4019 3.10675 3.41068 3.0773 3.41393C3.04129 3.41762 3.00208 3.4177 2.95682 3.41381L2.95682 3.41381L2.95606 3.41375C2.91826 3.41098 2.85194 3.40181 2.81076 3.39386C2.77104 3.3862 2.68649 3.36321 2.62443 3.34283C2.59315 3.33256 2.56322 3.3223 2.54026 3.31414C2.53954 3.31389 2.53882 3.31363 2.53812 3.31338C2.54504 3.29177 2.55633 3.25927 2.57385 3.2095C2.60548 3.12286 2.72579 2.8078 2.84279 2.50884C2.95986 2.2097 3.09295 1.86668 3.13812 1.74642C3.184 1.62662 3.23801 1.49075 3.25924 1.44311L3.20353 1.41827L3.25913 1.44336C3.26989 1.41953 3.28033 1.39751 3.28837 1.38142C3.28915 1.37986 3.2899 1.37837 3.29062 1.37696C3.29827 1.37527 3.30724 1.37345 3.31653 1.37177ZM3.29929 1.3607L3.29929 1.36072L3.29929 1.3607Z" stroke="#F7FEFF" stroke-width="0.122008"/>
<path fill-rule="evenodd" clip-rule="evenodd" d="M3.27752 0.940484C3.24982 0.943441 3.19444 0.952311 3.15332 0.96059C3.11304 0.968869 3.05094 0.986018 3.01569 0.998436C2.97961 1.01145 2.93094 1.03333 2.9066 1.04752C2.88226 1.06171 2.84534 1.08891 2.82436 1.10843C2.80254 1.12912 2.77653 1.16461 2.76058 1.19417C2.74632 1.22197 2.71443 1.29352 2.68925 1.35384C2.66408 1.41415 2.62044 1.5271 2.59275 1.60516C2.56505 1.68322 2.43834 2.02384 2.31246 2.36209C2.18574 2.70034 2.05651 3.05574 2.02378 3.15154C1.99189 3.24734 1.96168 3.34195 1.95665 3.36147C1.95161 3.38098 1.94658 3.42297 1.94574 3.4549L1.94322 3.51285C2.04728 3.57021 2.10183 3.5986 2.13204 3.61397C2.16225 3.62876 2.22435 3.65596 2.2705 3.67547C2.31666 3.6944 2.38967 3.72101 2.43162 3.7352C2.47442 3.74939 2.55247 3.77068 2.60366 3.78369C2.65568 3.79611 2.73792 3.81267 2.7866 3.82035C2.86212 3.83277 2.89737 3.83455 3.02996 3.83455C3.15416 3.83455 3.19779 3.83218 3.24815 3.82331C3.28255 3.8174 3.33878 3.80439 3.3715 3.79552C3.40507 3.78606 3.45962 3.76713 3.49319 3.75353C3.52591 3.73934 3.58885 3.70445 3.63249 3.67488C3.68284 3.64118 3.73067 3.60156 3.76508 3.56548C3.79361 3.53473 3.83305 3.48683 3.85068 3.45904C3.86914 3.43125 3.90187 3.3727 3.92284 3.32894C3.94466 3.28518 3.9883 3.18938 4.02019 3.11606C4.05124 3.04273 4.10075 2.92328 4.12928 2.84995C4.15781 2.77662 4.21488 2.6211 4.256 2.50401C4.29712 2.38692 4.3609 2.19592 4.39782 2.07942C4.43474 1.96352 4.47083 1.84525 4.47754 1.81627C4.48509 1.78789 4.49265 1.73171 4.496 1.69091C4.49852 1.64596 4.49684 1.59274 4.49013 1.5549C4.48509 1.5206 4.47251 1.4727 4.46412 1.44845C4.45488 1.42421 4.43558 1.38281 4.42048 1.35679C4.40537 1.33077 4.37264 1.28583 4.34747 1.25686C4.31726 1.22256 4.27194 1.18353 4.2174 1.1445C4.16285 1.10606 4.10746 1.07354 4.06215 1.05402C4.02271 1.03687 3.95557 1.01204 3.91277 0.999027C3.87082 0.986018 3.80032 0.968869 3.75753 0.961181C3.71557 0.953493 3.65095 0.944032 3.61487 0.940484C3.57962 0.936936 3.4999 0.93457 3.43864 0.93457C3.37822 0.935162 3.30521 0.937527 3.27752 0.940484ZM3.25402 1.32898C3.25821 1.32662 3.28171 1.3207 3.30689 1.31597C3.33374 1.31065 3.39248 1.3071 3.44955 1.3071C3.52088 1.30651 3.56368 1.30947 3.61319 1.31834C3.65011 1.32543 3.70466 1.33903 3.73487 1.34968C3.76424 1.36032 3.80955 1.3822 3.83557 1.39876C3.86074 1.41591 3.89431 1.4437 3.90858 1.46085C3.92368 1.47859 3.94382 1.51526 3.95389 1.54305C3.969 1.58622 3.97152 1.60455 3.96732 1.67019C3.9648 1.73051 3.95557 1.77131 3.92872 1.85942C3.90942 1.92092 3.87249 2.03564 3.84732 2.1137C3.82214 2.19176 3.76508 2.35556 3.72228 2.47738C3.67864 2.5992 3.61487 2.76951 3.57962 2.85584C3.54437 2.94218 3.48899 3.06991 3.45626 3.13969C3.42353 3.20947 3.38073 3.2893 3.36059 3.3171C3.33794 3.34903 3.30856 3.3786 3.28003 3.3987C3.2557 3.41585 3.21709 3.43655 3.1936 3.44424C3.17094 3.45192 3.12646 3.46139 3.09541 3.46493C3.05681 3.46907 3.01569 3.46907 2.96954 3.46493C2.93093 3.46198 2.86548 3.45252 2.82436 3.44424C2.78324 3.43596 2.70016 3.4123 2.63974 3.39161C2.57932 3.37091 2.52393 3.35021 2.51638 3.34607C2.50295 3.33839 2.50547 3.32774 2.55498 3.18109C2.58519 3.09475 2.70016 2.78074 2.81177 2.48329C2.92338 2.18585 3.0501 1.84523 3.0929 1.72637C3.13653 1.60751 3.18856 1.4709 3.20954 1.42182C3.23052 1.37333 3.25066 1.33135 3.25402 1.32898Z" fill="#221111"/>
</svg>
