<svg width="126" height="66" viewBox="0 0 126 66" fill="none" xmlns="http://www.w3.org/2000/svg">
<g filter="url(#filter0_d_199_10726)">
<path d="M86.6399 43.0231L86.6727 42.9496L86.6954 42.8743L92.6969 22.9502L92.7025 22.9316L92.7075 22.913C94.1309 17.5725 92.5459 13.0487 89.3013 9.64028C86.0745 6.25049 81.1954 3.93972 75.8918 2.90418C70.5886 1.8687 64.7504 2.08685 59.5639 3.87818C54.3441 5.68103 49.7784 9.08708 47.2076 14.3474L47.1611 14.4427L47.1317 14.5414L46.1675 17.7747L41.2004 34.4315C39.1696 39.8998 40.4761 44.567 43.6521 48.085C46.8092 51.5821 51.8106 53.9575 57.2775 55.0136C62.7461 56.07 68.8092 55.8313 74.1509 53.9589C79.5291 52.0738 84.1912 48.5182 86.6399 43.0231ZM63.9211 17.0864C64.1515 16.3442 64.7768 15.8047 65.9801 15.4891C67.2194 15.1641 68.8458 15.1632 70.4741 15.4667C72.0957 15.769 73.5694 16.3454 74.5204 17.0395C75.5247 17.7726 75.6394 18.3766 75.5083 18.7463C74.0672 22.8082 70.7285 32.2115 67.5865 40.822C67.2302 41.7983 66.3999 42.4912 65.1446 42.9093C63.8562 43.3384 62.2282 43.426 60.6523 43.1574C59.0761 42.8888 57.6961 42.2886 56.848 41.4892C56.0254 40.714 55.7474 39.8154 56.1033 38.7871C57.4271 34.9624 58.8035 31.2813 60.0742 27.8831L60.0854 27.8531C61.6102 23.7752 62.9911 20.0824 63.9211 17.0864Z" fill="#F7FEFF" stroke="#F7FEFF" stroke-width="2.47529"/>
<path d="M53.5957 36.3196C51.4306 45.9112 68.7159 48.2296 72.4744 39.8724L79.4788 21.1498C81.6438 11.5582 64.3586 9.23976 60.6001 17.5969L59.5108 20.5086M53.5957 36.3196L43.7875 34.3941M53.5957 36.3196L59.5108 20.5086M59.5108 20.5086L48.5672 18.4491M48.5672 18.4491L43.7616 34.4636C36.517 53.8281 75.3513 61.5355 84.0026 42.042L89.7936 22.9313C94.8765 4.04919 58.5745 -3.33748 49.4979 15.3479L48.5672 18.4491Z" stroke="black" stroke-width="2.47634"/>
<path d="M83.4622 16.5524L84.9157 16.1472M79.0405 11.728L79.9461 10.8205M71.5379 9.23817L71.6782 8.10681M63.3862 10.299L62.5827 9.26952M57.0663 14.1798L55.7502 13.6127M60.9113 49.5959L61.1184 48.4372M53.0275 46.9146L53.8523 46.0717M48.03 41.6625L49.4975 41.22M70.377 48.5029L69.5456 47.548M77.2095 44.1596L75.8544 43.5453M79.8063 38.5802L78.3256 38.3015M81.643 33.2169L80.0565 32.9183M83.3738 27.8338L81.7874 27.5352M85.1437 22.4979L83.6101 22.2092M51.0526 30.2546L49.4661 29.956M52.7834 24.8714L51.197 24.5729" stroke="black" stroke-width="0.46456" stroke-linecap="round"/>
<path d="M66.7783 16.245L66.7783 16.245L66.7855 16.2436C67.0647 16.1906 67.7799 16.1447 68.5291 16.1447V16.1447L68.5352 16.1446C69.4477 16.1374 69.9651 16.1735 70.5589 16.2753C71.0254 16.3615 71.702 16.5246 72.0541 16.6432C72.3924 16.7611 72.9306 17.0107 73.225 17.1886C73.5331 17.3912 73.9016 17.6928 74.0204 17.8297L74.0204 17.8298L74.0263 17.8364C74.1487 17.9743 74.3706 18.3489 74.4799 18.6364C74.5713 18.8871 74.6052 19.0148 74.6213 19.1551C74.6392 19.3115 74.6385 19.518 74.6111 19.9298L74.6105 19.9387L74.6101 19.9475C74.5812 20.6106 74.4833 21.0517 74.1359 22.145C73.8814 22.9222 73.395 24.3713 73.0621 25.3609C72.7332 26.3386 71.9829 28.4039 71.4157 29.9519C70.8401 31.4927 70.0017 33.6386 69.5423 34.7175C69.0799 35.8036 68.3529 37.4109 67.9273 38.2809C67.4945 39.1656 66.9563 40.1178 66.7391 40.4052L66.7391 40.4052L66.7345 40.4114C66.4828 40.7514 66.1564 41.064 65.8564 41.2667C65.577 41.4555 65.1339 41.6785 64.9133 41.7477L64.9133 41.7477L64.9056 41.7502C64.6675 41.8277 64.1347 41.9383 63.7636 41.9793C63.3098 42.0257 62.8157 42.0269 62.2454 41.9778L62.2454 41.9777L62.2358 41.977C61.7596 41.9421 60.9239 41.8266 60.4048 41.7264C59.9043 41.6298 58.8389 41.3402 58.0569 41.0834C57.6627 40.9539 57.2856 40.8246 56.9962 40.7218C56.9871 40.7186 56.9781 40.7154 56.9692 40.7122C57.0565 40.4399 57.1987 40.0303 57.4195 39.4031C57.8181 38.3113 59.3341 34.3411 60.8085 30.5737C62.2837 26.8042 63.9609 22.4816 64.5301 20.9661C65.1077 19.4577 65.7876 17.7472 66.0557 17.1455C66.191 16.8457 66.3223 16.5689 66.4235 16.3665C66.4333 16.3469 66.4427 16.3282 66.4517 16.3104C66.5482 16.289 66.6612 16.2661 66.7783 16.245ZM56.8599 41.108C56.8599 41.1081 56.86 41.1066 56.8604 41.1034C56.8602 41.1064 56.8599 41.108 56.8599 41.108Z" stroke="#F7FEFF" stroke-width="1.53748"/>
<path fill-rule="evenodd" clip-rule="evenodd" d="M66.2866 10.7835C65.9377 10.8208 65.2397 10.9325 64.7216 11.0369C64.214 11.1412 63.4314 11.3573 62.9873 11.5138C62.5326 11.6777 61.9192 11.9535 61.6126 12.1323C61.3059 12.3111 60.8406 12.6539 60.5762 12.8998C60.3013 13.1607 59.9735 13.6078 59.7726 13.9804C59.5928 14.3306 59.1909 15.2323 58.8737 15.9924C58.5564 16.7525 58.0066 18.1758 57.6576 19.1594C57.3086 20.1431 55.7118 24.4354 54.1256 28.6979C52.5288 32.9604 50.9003 37.439 50.4879 38.6462C50.086 39.8534 49.7053 41.0457 49.6419 41.2916C49.5784 41.5375 49.515 42.0666 49.5044 42.469L49.4727 43.1993C50.784 43.9221 51.4713 44.2798 51.852 44.4736C52.2327 44.6599 53.0152 45.0026 53.5969 45.2486C54.1785 45.487 55.0985 45.8224 55.6272 46.0012C56.1665 46.18 57.15 46.4483 57.7951 46.6122C58.4507 46.7687 59.487 46.9774 60.1004 47.0743C61.0521 47.2308 61.4962 47.2531 63.1671 47.2531C64.7321 47.2531 65.282 47.2233 65.9165 47.1115C66.3501 47.037 67.0586 46.8731 67.471 46.7613C67.894 46.6421 68.5814 46.4036 69.0044 46.2322C69.4168 46.0534 70.2099 45.6137 70.7598 45.2411C71.3943 44.8163 71.9971 44.3171 72.4306 43.8625C72.7902 43.475 73.2872 42.8714 73.5092 42.5212C73.7419 42.1709 74.1543 41.4332 74.4187 40.8817C74.6936 40.3303 75.2435 39.1231 75.6454 38.1991C76.0366 37.275 76.6605 35.7697 77.0201 34.8457C77.3796 33.9217 78.0987 31.9618 78.6169 30.4863C79.1351 29.0109 79.9387 26.6039 80.404 25.1359C80.8693 23.6753 81.324 22.1849 81.4086 21.8198C81.5038 21.4621 81.599 20.7541 81.6413 20.24C81.673 19.6736 81.6519 19.003 81.5673 18.526C81.5038 18.0938 81.3452 17.4902 81.2394 17.1847C81.1231 16.8792 80.8799 16.3575 80.6896 16.0296C80.4992 15.7018 80.0868 15.1354 79.7695 14.7703C79.3889 14.3381 78.8178 13.8462 78.1304 13.3544C77.4431 12.87 76.7451 12.4602 76.1741 12.2143C75.6771 11.9982 74.8311 11.6852 74.2918 11.5212C73.763 11.3573 72.8748 11.1412 72.3354 11.0443C71.8067 10.9474 70.9924 10.8282 70.5377 10.7835C70.0936 10.7388 69.089 10.709 68.317 10.709C67.5556 10.7164 66.6356 10.7462 66.2866 10.7835ZM65.9905 15.6792C66.0434 15.6493 66.3395 15.5748 66.6567 15.5152C66.9951 15.4481 67.7354 15.4034 68.4545 15.4034C69.3533 15.396 69.8926 15.4332 70.5166 15.545C70.9818 15.6344 71.6692 15.8058 72.0499 15.94C72.42 16.0741 72.9911 16.3498 73.3189 16.5585C73.6361 16.7746 74.0591 17.1248 74.2389 17.3409C74.4292 17.5645 74.683 18.0265 74.8099 18.3767C75.0003 18.9207 75.032 19.1517 74.9791 19.9789C74.9474 20.739 74.8311 21.2532 74.4927 22.3635C74.2495 23.1385 73.7842 24.5842 73.4669 25.5678C73.1497 26.5515 72.4306 28.6157 71.8913 30.1508C71.3414 31.6858 70.5377 33.832 70.0936 34.92C69.6494 36.0079 68.9515 37.6176 68.5391 38.4969C68.1266 39.3762 67.5873 40.3822 67.3335 40.7325C67.048 41.1349 66.6779 41.5074 66.3184 41.7608C66.0117 41.9769 65.5252 42.2377 65.2291 42.3346C64.9436 42.4315 64.3832 42.5507 63.9919 42.5954C63.5054 42.6476 62.9873 42.6476 62.4057 42.5954C61.9192 42.5582 61.0944 42.4389 60.5762 42.3346C60.0581 42.2303 59.0111 41.9322 58.2498 41.6714C57.4884 41.4106 56.7904 41.1498 56.6953 41.0976C56.5261 41.0007 56.5578 40.8666 57.1817 39.0185C57.5624 37.9305 59.0111 33.9736 60.4176 30.2253C61.8241 26.477 63.4209 22.1847 63.9602 20.6868C64.5101 19.189 65.1657 17.4676 65.4301 16.8491C65.6944 16.238 65.9482 15.709 65.9905 15.6792Z" fill="#221111"/>
<mask id="path-6-outside-1_199_10726" maskUnits="userSpaceOnUse" x="4" y="7.83008" width="118" height="33" fill="black">
<rect fill="white" x="4" y="7.83008" width="118" height="33"/>
<path d="M12.4137 20.9072C12.8118 20.738 13.6301 20.4764 14.2383 20.3072C14.8465 20.1533 15.7754 20.0149 17.2793 19.9995L17.9981 20.8919C18.3962 21.3688 18.7279 21.815 18.7169 21.8919C18.7169 21.9535 18.7943 21.9996 18.8827 21.9996C18.9712 21.9996 19.0486 21.8612 19.0486 21.6919C19.0486 21.5227 19.2255 21.1996 19.4688 20.938C19.69 20.7072 19.9885 20.4303 20.1323 20.3226C20.265 20.2303 20.453 20.1533 20.5414 20.1533C20.652 20.1533 20.7847 20.5072 20.9174 21.1996C21.0391 21.7688 21.216 22.3381 21.3155 22.4612C21.4261 22.6151 21.4924 22.9382 21.4924 23.3843C21.4814 23.769 21.5588 24.2613 21.6473 24.5075C21.8021 24.8921 21.78 25.046 21.3155 26.9692C21.0391 28.077 20.7073 29.754 20.5746 30.6926C20.3756 32.1542 20.3535 32.7081 20.4198 34.7698C20.4862 36.9084 20.4751 37.2007 20.2982 37.5238C20.1876 37.7392 19.9332 38.0008 19.7453 38.1085C19.5462 38.2162 19.1592 38.3085 18.8827 38.3085C18.3851 38.3085 18.3851 38.3085 18.1197 37.5084C17.976 37.0622 17.7437 36.1699 17.6 35.5391C17.3899 34.6005 17.3567 34.0928 17.3678 32.7696C17.3899 31.8773 17.4452 30.7079 17.5005 30.1541C17.5557 29.6002 17.7548 28.4616 17.9538 27.6154C18.1418 26.7692 18.3077 25.723 18.3188 25.2768C18.3188 24.8306 18.3962 24.3844 18.4736 24.2767C18.551 24.169 18.6063 23.969 18.6063 23.8459C18.6063 23.6459 18.4183 23.6305 17.4673 23.6613C16.848 23.6921 15.7201 23.8459 14.9571 24.0305C14.1941 24.1998 13.2763 24.4767 12.9113 24.646C12.5464 24.8152 12.1815 25.0306 12.1041 25.1229C12.0267 25.2306 11.9161 25.5845 11.8608 25.923C11.8055 26.2615 11.6618 26.9538 11.5291 27.4616C11.4074 27.9693 11.3079 28.5232 11.3079 28.6924C11.3079 28.9847 11.3521 29.0001 12.2147 28.877C12.7233 28.8155 13.6191 28.7232 14.2162 28.6463C15.2004 28.5539 15.2888 28.5693 15.2888 28.8155C15.2888 28.954 15.3773 29.1694 15.4879 29.2771C15.5985 29.3694 15.7754 29.6309 15.8749 29.8463C16.0518 30.2156 16.0408 30.2618 15.6206 31.1234C15.2999 31.7542 15.0898 32.0157 14.8797 32.0773C14.7027 32.108 14.0946 32.2465 13.5195 32.385C12.9445 32.5081 12.0488 32.7235 11.5291 32.8619C11.0093 33.0004 10.4564 33.1235 10.2906 33.1697C10.1136 33.2004 9.95881 33.2774 9.93669 33.3543C9.90352 33.4158 9.74871 33.9543 9.58283 34.539C9.38379 35.2467 9.28426 35.8622 9.29532 36.3545C9.30638 36.7545 9.24003 37.2777 9.15157 37.5392C9.0631 37.8008 8.87511 38.0777 8.74242 38.17C8.54337 38.3085 8.35538 38.2931 7.95729 38.1393C7.51496 37.9546 7.36015 37.8008 7.09475 37.2315C6.91782 36.8468 6.74089 36.2622 6.70772 35.9237C6.67455 35.5237 6.72984 34.939 7.10581 33.2312L6.80724 32.9696C6.65243 32.8158 6.39809 32.3542 6.25434 31.9234C6.12164 31.508 6 30.9541 6 30.6926C6 30.431 6.09952 30.0156 6.22116 29.754C6.35386 29.4925 6.61926 29.1694 6.82936 29.0309C7.03946 28.8924 7.31592 28.7693 7.43756 28.7693C7.5592 28.7693 7.78036 28.877 7.93517 29.0001C8.08999 29.1232 8.23374 29.1848 8.25586 29.1232C8.27798 29.0463 8.41067 28.6155 8.53231 28.1539C8.66501 27.6923 8.76453 27.1846 8.76453 27.0461C8.76453 26.8769 8.63183 26.7077 8.46596 26.6153C8.28903 26.5384 7.97941 26.1384 7.7693 25.7384C7.48179 25.1845 7.38227 24.8152 7.36015 24.2767C7.33803 23.7382 7.38227 23.4459 7.52602 23.2305C7.6366 23.0612 8.44385 22.6151 9.48331 22.1381C10.4564 21.7073 11.3521 21.3227 11.4738 21.2765C11.5954 21.2457 12.0156 21.0765 12.4137 20.9072Z"/>
<path d="M31.3231 20.4611C32.2078 20.3072 33.1035 20.138 33.3136 20.0918C33.5237 20.061 34.0987 20.061 34.5853 20.0918C35.4478 20.1687 35.481 20.1841 35.9454 20.8149C36.2108 21.1688 36.4983 21.6458 36.5868 21.8765C36.6753 22.1227 36.7416 22.4612 36.7416 22.6458C36.7305 22.8458 36.6531 23.1382 36.5426 23.3074C36.443 23.4767 36.1223 23.7074 35.8348 23.7998C35.5363 23.9075 35.0718 23.9998 34.7843 23.9998C34.4857 23.9998 33.5126 24.1382 32.5948 24.3075C31.688 24.4767 30.9361 24.6306 30.925 24.646C30.925 24.6767 30.6928 25.4614 30.4053 26.3846C30.1178 27.3077 29.8856 28.1231 29.8856 28.1847C29.8856 28.2616 29.7307 28.7693 29.5428 29.3386C29.3548 29.9233 29.1004 30.6618 28.9899 31.0003C28.8793 31.3388 28.636 32.108 28.4591 32.6927C28.2821 33.2774 28.0831 34.139 28.0167 34.5698C27.9504 35.0159 27.8951 35.4775 27.8951 35.5698C27.9062 35.6775 28.1163 36.0314 28.835 36.9084L28.7023 37.5392C28.5918 38.0162 28.4701 38.2008 28.1716 38.3854C27.9614 38.5085 27.6739 38.6162 27.5412 38.6162C27.3975 38.6162 26.9994 38.4008 26.6566 38.1239C26.2696 37.8162 26.0263 37.5084 26.0152 37.3546C26.0152 37.2007 25.982 37.0469 25.9378 37.0161C25.8825 36.9853 25.7498 36.4776 25.6392 35.9083C25.4844 35.1237 25.4402 34.5698 25.4844 33.7697C25.5287 33.0004 25.7277 32.0157 26.159 30.3848C26.4797 29.1232 26.933 27.5539 27.1542 26.9231C27.3754 26.2922 27.5634 25.6307 27.5634 25.4614C27.5634 25.1845 27.5191 25.1691 27.2095 25.2768C27.0104 25.3383 26.2253 25.4306 24.08 25.5845L23.7151 25.1383C23.494 24.8768 23.2617 24.3536 23.129 23.8921C23.0185 23.4459 22.9189 22.892 22.9189 22.6612C22.9189 22.415 22.9742 22.0458 23.0516 21.815C23.1954 21.3996 23.2065 21.3842 24.2459 21.3842C24.8209 21.3842 26.0152 21.2765 26.8999 21.1534C28.2821 20.9534 28.5254 20.8919 28.6471 20.6149C28.7134 20.4457 28.8793 20.3072 29.0009 20.3072C29.1226 20.3072 29.3327 20.4149 29.4764 20.538C29.6976 20.738 29.8856 20.738 31.3231 20.4611Z"/>
<path d="M116.458 21.9647C117.017 21.1696 117.544 20.5695 117.877 20.3595C118.178 20.1645 118.501 19.9995 118.608 19.9995C118.705 19.9995 118.791 20.0895 118.791 20.1945C118.791 20.2845 118.92 20.5545 119.082 20.7646C119.254 20.9746 119.501 21.2446 119.652 21.3796C119.802 21.4996 119.953 21.7997 119.985 22.0397C120.017 22.2797 119.996 22.6397 119.942 22.8497C119.888 23.0598 119.415 23.8248 118.888 24.5749C118.361 25.325 117.92 26.045 117.931 26.1951C117.931 26.3301 117.845 26.4651 117.748 26.4951C117.641 26.5251 117.318 27.0501 117.038 27.6652C116.759 28.2803 116.2 29.5404 115.802 30.4705C115.404 31.4005 114.974 32.4206 114.844 32.7207C114.715 33.0207 114.479 33.6507 114.328 34.1008C114.167 34.5508 113.941 35.1209 113.812 35.3759C113.683 35.6309 113.425 36.261 113.242 36.801C113.059 37.3411 112.769 37.9711 112.597 38.1962C112.339 38.5562 112.22 38.6162 111.909 38.5412C111.704 38.4962 111.36 38.3012 111.156 38.1212C110.951 37.9261 110.672 37.4761 110.295 36.426L110.5 35.4509C110.618 34.9109 110.79 34.3708 110.887 34.2508C110.984 34.1308 111.059 33.9658 111.048 33.8758C111.048 33.7858 111.339 33.0057 111.694 32.1206C112.048 31.2205 112.339 30.4104 112.339 30.3204C112.339 30.2154 112.22 29.9604 112.07 29.7504C111.919 29.5404 111.672 28.9403 111.521 28.4003C111.371 27.8602 111.145 26.7501 111.027 25.925C110.908 25.1 110.801 24.1249 110.779 23.7498C110.769 23.3748 110.726 22.6397 110.672 22.0997C110.607 21.2296 110.618 21.0796 110.822 20.7196C110.951 20.4795 111.145 20.2995 111.263 20.2995C111.382 20.2995 111.769 20.4945 112.124 20.7496C112.479 21.0046 112.909 21.4246 113.092 21.6796C113.274 21.9647 113.414 22.3397 113.414 22.5497C113.414 22.7597 113.457 23.1198 113.511 23.3748C113.565 23.6298 113.672 24.2599 113.758 24.7849C113.834 25.325 113.952 25.865 114.016 25.985C114.113 26.1801 114.221 26.06 114.662 25.25C114.952 24.7099 115.275 24.0349 115.382 23.7498C115.49 23.4648 115.974 22.6547 116.458 21.9647Z"/>
<path d="M82.9798 21.1396C83.5391 21.0196 84.4101 20.8096 84.9156 20.7046C85.421 20.5845 85.9265 20.5245 86.0448 20.5695C86.1631 20.6145 86.3781 20.6445 86.5287 20.6295C86.6793 20.6295 86.9374 20.8096 87.1202 21.0346C87.303 21.2746 87.5504 21.4996 87.6902 21.5596C87.8837 21.6496 87.9268 21.7696 87.9268 22.2647C87.9268 22.7597 87.8515 22.9698 87.5289 23.4348C87.2815 23.7798 86.9051 24.1099 86.5825 24.2599C86.2921 24.3949 85.5823 24.6049 85.0231 24.7399C84.4639 24.8749 83.8079 25.1 83.5713 25.25C83.3347 25.4 82.9046 25.565 82.6034 25.625C82.3131 25.685 81.9044 25.82 81.7108 25.91C81.399 26.06 81.356 26.1501 81.4205 26.9901L83.0659 26.9601C84.3133 26.9301 84.7005 26.9601 84.7005 27.1101C84.7005 27.2002 84.8511 27.5002 85.0446 27.7702C85.2382 28.0252 85.5286 28.3253 85.7006 28.4003C85.9157 28.5203 85.991 28.6703 85.991 28.9853C86.0018 29.3153 85.8835 29.4954 85.3242 30.0204C84.9479 30.3654 84.4532 30.7705 84.2166 30.9055C83.8724 31.1155 83.4638 31.1755 80.6032 31.1905L80.3128 31.8656C80.1515 32.2406 79.9364 32.7957 79.8289 33.1107C79.7321 33.4107 79.6783 33.6958 79.7321 33.7408C79.7751 33.7858 80.216 33.8158 80.7215 33.8158C81.2269 33.8158 82.1733 33.7108 82.8185 33.5907C83.4745 33.4857 84.3671 33.2757 85.6146 32.9007L85.991 33.4257C86.1953 33.7258 86.4212 33.9658 86.4749 33.9658C86.5395 33.9658 86.6685 34.2208 86.7653 34.5208C86.9481 35.0909 86.9481 35.0909 86.6255 35.7359C86.4534 36.081 86.1093 36.531 85.862 36.726C85.6039 36.921 85.0339 37.2061 84.593 37.3411C84.152 37.4761 83.3025 37.6561 82.711 37.7311C82.1195 37.8211 81.1731 37.9261 80.6139 37.9711C79.9902 38.0162 79.3664 37.9861 79.0008 37.8811C78.6782 37.7761 78.248 37.5811 78.0437 37.4461C77.8393 37.3111 77.549 36.9211 77.4092 36.591C77.2586 36.261 77.0758 35.5109 76.9897 34.9409C76.9145 34.3708 76.8499 33.5607 76.8499 33.1407C76.8499 32.6607 76.9252 32.2256 77.065 31.9106C77.1833 31.6406 77.2801 31.3255 77.2801 31.2355C77.2801 31.1305 77.3446 30.9355 77.4307 30.8155C77.506 30.6955 77.8178 29.8254 78.6782 27.2152L78.4738 26.8101C78.3663 26.5701 78.2372 26.2251 78.1942 26.015C78.1405 25.805 78.0437 25.16 77.8393 23.5398L78.1727 23.1198C78.3663 22.8948 78.8292 22.5796 79.2163 22.4295C79.6036 22.2795 80.3775 21.9796 80.9365 21.7546C81.4958 21.5446 82.4206 21.2746 82.9798 21.1396Z"/>
<path fill-rule="evenodd" clip-rule="evenodd" d="M93.2501 20.3745C93.0135 20.4945 92.6048 20.8846 92.3467 21.2296C92.0886 21.5896 91.5509 22.4747 91.153 23.2248C90.7551 23.9749 90.3249 24.7099 90.2066 24.8749C90.0346 25.1 89.9378 25.13 89.841 25.0099C89.7657 24.9199 89.5937 24.7999 89.4646 24.7399C89.2818 24.6799 89.1742 24.7399 89.0667 24.9799C88.9807 25.175 88.7333 26.4051 88.5182 27.7252C88.2924 29.0453 88.0666 30.5005 88.0128 30.9505C87.959 31.4005 87.8945 31.9706 87.873 32.2256C87.8515 32.4806 87.7654 33.0807 87.6687 33.5757C87.5826 34.0708 87.4966 34.6408 87.4858 34.8509C87.4643 35.0609 87.5074 35.3609 87.5719 35.5259C87.6364 35.6909 87.7332 36.096 87.7762 36.426C87.8192 36.756 87.959 37.1611 88.0773 37.3261C88.2064 37.4911 88.4215 37.7161 88.572 37.8211C88.7978 37.9861 88.9054 37.9561 89.3033 37.7011C89.6689 37.4611 89.8087 37.2511 90.0131 36.606C90.1529 36.186 90.2927 35.6009 90.3357 35.3309C90.368 35.0759 90.454 34.8509 90.5078 34.8509C90.5615 34.8509 90.7981 35.0759 91.024 35.3609C91.239 35.6309 91.6692 36.066 91.9596 36.321C92.2607 36.576 93.0565 37.0861 93.734 37.4461C94.4115 37.8061 95.3149 38.2262 95.7235 38.3762C96.143 38.5112 96.7452 38.6162 97.0678 38.6162C97.412 38.6162 97.7668 38.5112 97.9066 38.3762C98.0357 38.2562 98.197 38.0012 98.2723 37.8061C98.3368 37.6261 98.4121 37.1761 98.4336 36.801C98.4551 36.351 98.4013 35.916 98.2508 35.4809C98.0464 34.8959 98.0034 34.8509 97.5302 34.7759C97.2399 34.7308 96.4548 34.5208 95.7773 34.3108C95.0998 34.0858 94.3255 33.7708 94.0566 33.5907C93.7878 33.3957 93.3684 33.0657 93.121 32.8557C92.8629 32.6307 92.6586 32.3906 92.6586 32.3006C92.6586 32.2106 92.8414 32.0606 93.0673 31.9406C93.2823 31.8356 93.7555 31.6256 94.1104 31.4755C94.4653 31.3405 95.046 31.0405 95.4009 30.8155C95.7558 30.5905 96.3043 30.0804 96.6161 29.6754C96.9495 29.2403 97.2291 28.7003 97.3044 28.4003C97.3689 28.1152 97.4227 27.5752 97.412 27.2002C97.412 26.8101 97.2721 26.03 97.0678 25.325C96.885 24.6649 96.5946 23.7798 96.4441 23.3748C96.2828 22.9548 96.0569 22.5197 95.9386 22.3997C95.8203 22.2797 95.6268 22.0097 95.5085 21.8297C95.3902 21.6346 94.9923 21.1696 94.6266 20.8096C94.2502 20.4495 93.8846 20.1495 93.8201 20.1495C93.7448 20.1645 93.4867 20.2545 93.2501 20.3745ZM91.723 28.0252C91.7552 27.7702 92.0994 27.0651 92.5403 26.3301C92.9597 25.655 93.3791 25.1 93.4544 25.1C93.5404 25.1 93.7448 25.265 93.9168 25.445C94.0782 25.64 94.261 26.015 94.3148 26.2701C94.3793 26.5251 94.4223 26.8401 94.4223 26.9751C94.4223 27.1401 94.1642 27.3652 93.6695 27.6652C93.2608 27.9052 92.6479 28.2052 92.3252 28.3253C92.0026 28.4453 91.723 28.5203 91.7015 28.5053C91.68 28.4903 91.6907 28.2803 91.723 28.0252Z"/>
<path fill-rule="evenodd" clip-rule="evenodd" d="M101.853 20.7346C102.445 20.5545 103.359 20.3595 103.897 20.2995C104.434 20.2395 105.133 20.2095 105.456 20.2395C105.779 20.2695 106.273 20.3445 106.542 20.4045C106.822 20.4645 107.166 20.6745 107.295 20.8546C107.435 21.0496 107.607 21.1996 107.661 21.1996C107.714 21.1996 108.016 21.5446 108.317 21.9797C108.618 22.4147 108.93 23.0148 108.994 23.2998C109.059 23.5848 109.113 23.9899 109.113 24.1999C109.113 24.4099 108.994 24.9049 108.844 25.325C108.704 25.73 108.231 26.5851 107.037 28.3253L107.607 29.0003C107.93 29.3754 108.392 29.9604 108.65 30.3054C108.908 30.6655 109.22 31.2355 109.338 31.5806C109.467 31.9406 109.596 32.5556 109.618 32.9757C109.65 33.6657 109.618 33.7858 109.188 34.5508C108.801 35.2409 108.543 35.5109 107.553 36.231C106.897 36.696 106.005 37.2211 105.564 37.3861C105.123 37.5511 104.563 37.7911 104.327 37.9261C104.09 38.0762 103.585 38.2112 103.198 38.2412C102.606 38.3012 102.423 38.2412 101.531 37.5361L101.294 37.9261C101.122 38.1962 100.95 38.2862 100.735 38.2562C100.563 38.2412 100.262 38.0161 100.057 37.7611C99.8639 37.4911 99.6488 37.1911 99.595 37.0861C99.5413 36.9661 99.4122 36.636 99.3154 36.351C99.2079 36.051 99.1541 35.6309 99.1864 35.3759C99.2187 35.1209 99.2939 34.8359 99.337 34.7308C99.3907 34.6408 99.4122 34.4608 99.3907 34.3558C99.3692 34.2658 99.4445 33.7858 99.552 33.3057C99.6596 32.8407 99.8209 32.3006 99.9069 32.1206C99.993 31.9256 100.219 30.8605 100.402 29.7504C100.595 28.6403 100.843 27.3652 100.95 26.9451C101.058 26.5101 101.154 25.955 101.154 25.7C101.154 25.445 101.133 25.25 101.101 25.25C101.068 25.25 100.961 25.31 100.864 25.385C100.757 25.445 100.638 25.685 100.595 25.91C100.531 26.1951 100.412 26.3301 100.165 26.3901C99.8962 26.4651 99.6918 26.4051 99.3262 26.1201C99.0573 25.91 98.6809 25.475 98.4874 25.16C98.2938 24.8449 98.068 24.3499 97.9819 24.0949C97.8421 23.6598 97.8421 23.5548 97.9819 23.1498C98.068 22.8948 98.3261 22.5197 98.5519 22.2797C98.767 22.0547 99.3585 21.6796 99.8639 21.4546C100.369 21.2296 101.262 20.9146 101.853 20.7346ZM104.058 30.6955L103.155 31.0255C102.477 33.6357 102.316 34.4458 102.359 34.5058C102.402 34.5808 102.671 34.5508 102.95 34.4458C103.23 34.3558 104.058 33.9058 104.8 33.4707C105.779 32.8707 106.284 32.4806 106.661 31.9856C106.94 31.6256 107.166 31.2655 107.166 31.1755C107.166 31.0855 106.983 30.9055 106.768 30.7555C106.542 30.5905 106.048 30.4405 105.66 30.4104C105.166 30.3654 104.703 30.4405 104.058 30.6955ZM103.155 24.1849C103.563 24.0049 104.101 23.8098 104.37 23.7498C104.639 23.6898 105.08 23.6298 105.37 23.6148C105.65 23.6148 105.876 23.6748 105.876 23.7498C105.876 23.8248 105.596 24.2599 105.252 24.6799C104.908 25.115 104.381 25.655 103.51 26.3001L103.165 25.805C102.972 25.535 102.692 25.22 102.552 25.1C102.402 24.9649 102.316 24.7999 102.359 24.6949C102.402 24.5899 102.757 24.3499 103.155 24.1849Z"/>
<path d="M34.1497 12.4388C34.3376 12.3614 35.2756 12.1785 36.2516 12.0545L36.2359 12.0532C37.6325 11.8895 42.5805 9.62611 44.5668 9.84497C46.2732 10.0223 47.3548 10.2225 47.9626 10.4952C48.4538 10.7027 49.2102 11.1361 49.6331 11.4679C50.2547 11.9459 50.4606 12.2413 50.6566 12.9814C50.8075 13.5136 51.122 14.1149 51.4222 14.4181C51.7949 14.7643 52.0177 15.2467 52.1539 15.9633C52.2673 16.5296 52.325 17.2398 52.2892 17.5524C52.2376 17.8638 51.8838 18.5587 51.4666 19.1557C51.0681 19.7356 50.085 20.7687 49.3039 21.4471C48.5041 22.1425 47.3785 22.9783 46.7965 23.3203C46.2144 23.6624 45.4666 24.1393 45.1414 24.3725C44.8319 24.607 44.5417 24.9173 44.5235 25.0272C44.5023 25.1554 43.827 25.6754 43.0449 26.1681C42.247 26.6595 41.2967 27.3983 40.9442 27.7963C40.3577 28.4536 40.3081 28.5609 40.5256 28.6901C40.6736 28.758 41.6223 28.7988 42.6364 28.7336C43.6474 28.6867 46.0677 28.4915 46.7108 28.3587C47.3538 28.2259 48.3298 28.1018 48.9075 28.075C49.4853 28.0482 50.3138 27.9492 50.7779 27.8388C51.2264 27.7272 51.9733 27.64 52.432 27.6591C53.2079 27.6857 53.2804 27.7288 53.6203 28.3694C53.8141 28.738 53.9776 29.2898 53.9732 29.6051C53.9689 29.9203 54.0907 30.3387 54.2302 30.5544C54.3697 30.7701 54.4632 31.1676 54.4021 31.441C54.3536 31.7341 54.1552 32.1633 53.9556 32.4068C53.7688 32.67 53.4 32.9738 53.1274 33.0814C52.8675 33.2086 52.4723 33.2875 52.2209 33.2668C51.9883 33.2291 51.6686 33.3328 51.5156 33.4873C51.3657 33.6235 50.7323 33.7943 50.1014 33.8539C49.4893 33.9116 47.5068 34.1888 45.6325 34.4509L45.4601 34.4751C43.5335 34.7623 38.758 35.4162 37.8727 35.4734C36.5227 35.5481 37.7313 35.4618 36.5766 35.1256C35.831 34.9158 35.0063 34.6067 34.7792 34.4396C34.4796 34.2293 34.2664 33.7848 34.0607 33.0068C33.7971 32.0012 33.8015 31.686 34.0439 30.2207C34.1924 29.3232 34.4152 28.2648 34.5417 27.8854C34.7117 27.4352 36.6362 26.4028 37.6598 25.3173C38.4899 24.4387 40.2634 23.1672 40.9442 22.5177C41.6406 21.8695 42.8031 20.9068 43.5068 20.4077C44.2261 19.9098 44.9444 19.5774 45.4601 19.1557C45.9757 18.7339 46.3497 18.1704 47.0276 17.3987C47.7055 16.627 47.8902 16.7084 47.9084 16.5985C47.9327 16.452 46.7805 15.0949 46.3497 15.0038C45.9533 14.897 45.1363 14.8299 44.5145 14.8345C43.8957 14.8208 38.6533 17.2271 37.8471 17.3836C36.5139 17.6454 36.2407 17.6601 35.1398 17.384C34.3441 17.1887 33.8402 16.9617 33.688 16.7264C33.5612 16.5303 33.4575 16.002 33.4547 15.5376C33.4519 15.0733 33.5224 14.2623 33.5915 13.7481C33.6945 13.1254 33.4751 13.2002 33.7551 12.7591C33.9946 12.3703 33.9617 12.5162 34.1497 12.4388Z"/>
</mask>
<path d="M12.4137 20.9072C12.8118 20.738 13.6301 20.4764 14.2383 20.3072C14.8465 20.1533 15.7754 20.0149 17.2793 19.9995L17.9981 20.8919C18.3962 21.3688 18.7279 21.815 18.7169 21.8919C18.7169 21.9535 18.7943 21.9996 18.8827 21.9996C18.9712 21.9996 19.0486 21.8612 19.0486 21.6919C19.0486 21.5227 19.2255 21.1996 19.4688 20.938C19.69 20.7072 19.9885 20.4303 20.1323 20.3226C20.265 20.2303 20.453 20.1533 20.5414 20.1533C20.652 20.1533 20.7847 20.5072 20.9174 21.1996C21.0391 21.7688 21.216 22.3381 21.3155 22.4612C21.4261 22.6151 21.4924 22.9382 21.4924 23.3843C21.4814 23.769 21.5588 24.2613 21.6473 24.5075C21.8021 24.8921 21.78 25.046 21.3155 26.9692C21.0391 28.077 20.7073 29.754 20.5746 30.6926C20.3756 32.1542 20.3535 32.7081 20.4198 34.7698C20.4862 36.9084 20.4751 37.2007 20.2982 37.5238C20.1876 37.7392 19.9332 38.0008 19.7453 38.1085C19.5462 38.2162 19.1592 38.3085 18.8827 38.3085C18.3851 38.3085 18.3851 38.3085 18.1197 37.5084C17.976 37.0622 17.7437 36.1699 17.6 35.5391C17.3899 34.6005 17.3567 34.0928 17.3678 32.7696C17.3899 31.8773 17.4452 30.7079 17.5005 30.1541C17.5557 29.6002 17.7548 28.4616 17.9538 27.6154C18.1418 26.7692 18.3077 25.723 18.3188 25.2768C18.3188 24.8306 18.3962 24.3844 18.4736 24.2767C18.551 24.169 18.6063 23.969 18.6063 23.8459C18.6063 23.6459 18.4183 23.6305 17.4673 23.6613C16.848 23.6921 15.7201 23.8459 14.9571 24.0305C14.1941 24.1998 13.2763 24.4767 12.9113 24.646C12.5464 24.8152 12.1815 25.0306 12.1041 25.1229C12.0267 25.2306 11.9161 25.5845 11.8608 25.923C11.8055 26.2615 11.6618 26.9538 11.5291 27.4616C11.4074 27.9693 11.3079 28.5232 11.3079 28.6924C11.3079 28.9847 11.3521 29.0001 12.2147 28.877C12.7233 28.8155 13.6191 28.7232 14.2162 28.6463C15.2004 28.5539 15.2888 28.5693 15.2888 28.8155C15.2888 28.954 15.3773 29.1694 15.4879 29.2771C15.5985 29.3694 15.7754 29.6309 15.8749 29.8463C16.0518 30.2156 16.0408 30.2618 15.6206 31.1234C15.2999 31.7542 15.0898 32.0157 14.8797 32.0773C14.7027 32.108 14.0946 32.2465 13.5195 32.385C12.9445 32.5081 12.0488 32.7235 11.5291 32.8619C11.0093 33.0004 10.4564 33.1235 10.2906 33.1697C10.1136 33.2004 9.95881 33.2774 9.93669 33.3543C9.90352 33.4158 9.74871 33.9543 9.58283 34.539C9.38379 35.2467 9.28426 35.8622 9.29532 36.3545C9.30638 36.7545 9.24003 37.2777 9.15157 37.5392C9.0631 37.8008 8.87511 38.0777 8.74242 38.17C8.54337 38.3085 8.35538 38.2931 7.95729 38.1393C7.51496 37.9546 7.36015 37.8008 7.09475 37.2315C6.91782 36.8468 6.74089 36.2622 6.70772 35.9237C6.67455 35.5237 6.72984 34.939 7.10581 33.2312L6.80724 32.9696C6.65243 32.8158 6.39809 32.3542 6.25434 31.9234C6.12164 31.508 6 30.9541 6 30.6926C6 30.431 6.09952 30.0156 6.22116 29.754C6.35386 29.4925 6.61926 29.1694 6.82936 29.0309C7.03946 28.8924 7.31592 28.7693 7.43756 28.7693C7.5592 28.7693 7.78036 28.877 7.93517 29.0001C8.08999 29.1232 8.23374 29.1848 8.25586 29.1232C8.27798 29.0463 8.41067 28.6155 8.53231 28.1539C8.66501 27.6923 8.76453 27.1846 8.76453 27.0461C8.76453 26.8769 8.63183 26.7077 8.46596 26.6153C8.28903 26.5384 7.97941 26.1384 7.7693 25.7384C7.48179 25.1845 7.38227 24.8152 7.36015 24.2767C7.33803 23.7382 7.38227 23.4459 7.52602 23.2305C7.6366 23.0612 8.44385 22.6151 9.48331 22.1381C10.4564 21.7073 11.3521 21.3227 11.4738 21.2765C11.5954 21.2457 12.0156 21.0765 12.4137 20.9072Z" fill="#221111"/>
<path d="M31.3231 20.4611C32.2078 20.3072 33.1035 20.138 33.3136 20.0918C33.5237 20.061 34.0987 20.061 34.5853 20.0918C35.4478 20.1687 35.481 20.1841 35.9454 20.8149C36.2108 21.1688 36.4983 21.6458 36.5868 21.8765C36.6753 22.1227 36.7416 22.4612 36.7416 22.6458C36.7305 22.8458 36.6531 23.1382 36.5426 23.3074C36.443 23.4767 36.1223 23.7074 35.8348 23.7998C35.5363 23.9075 35.0718 23.9998 34.7843 23.9998C34.4857 23.9998 33.5126 24.1382 32.5948 24.3075C31.688 24.4767 30.9361 24.6306 30.925 24.646C30.925 24.6767 30.6928 25.4614 30.4053 26.3846C30.1178 27.3077 29.8856 28.1231 29.8856 28.1847C29.8856 28.2616 29.7307 28.7693 29.5428 29.3386C29.3548 29.9233 29.1004 30.6618 28.9899 31.0003C28.8793 31.3388 28.636 32.108 28.4591 32.6927C28.2821 33.2774 28.0831 34.139 28.0167 34.5698C27.9504 35.0159 27.8951 35.4775 27.8951 35.5698C27.9062 35.6775 28.1163 36.0314 28.835 36.9084L28.7023 37.5392C28.5918 38.0162 28.4701 38.2008 28.1716 38.3854C27.9614 38.5085 27.6739 38.6162 27.5412 38.6162C27.3975 38.6162 26.9994 38.4008 26.6566 38.1239C26.2696 37.8162 26.0263 37.5084 26.0152 37.3546C26.0152 37.2007 25.982 37.0469 25.9378 37.0161C25.8825 36.9853 25.7498 36.4776 25.6392 35.9083C25.4844 35.1237 25.4402 34.5698 25.4844 33.7697C25.5287 33.0004 25.7277 32.0157 26.159 30.3848C26.4797 29.1232 26.933 27.5539 27.1542 26.9231C27.3754 26.2922 27.5634 25.6307 27.5634 25.4614C27.5634 25.1845 27.5191 25.1691 27.2095 25.2768C27.0104 25.3383 26.2253 25.4306 24.08 25.5845L23.7151 25.1383C23.494 24.8768 23.2617 24.3536 23.129 23.8921C23.0185 23.4459 22.9189 22.892 22.9189 22.6612C22.9189 22.415 22.9742 22.0458 23.0516 21.815C23.1954 21.3996 23.2065 21.3842 24.2459 21.3842C24.8209 21.3842 26.0152 21.2765 26.8999 21.1534C28.2821 20.9534 28.5254 20.8919 28.6471 20.6149C28.7134 20.4457 28.8793 20.3072 29.0009 20.3072C29.1226 20.3072 29.3327 20.4149 29.4764 20.538C29.6976 20.738 29.8856 20.738 31.3231 20.4611Z" fill="#221111"/>
<path d="M116.458 21.9647C117.017 21.1696 117.544 20.5695 117.877 20.3595C118.178 20.1645 118.501 19.9995 118.608 19.9995C118.705 19.9995 118.791 20.0895 118.791 20.1945C118.791 20.2845 118.92 20.5545 119.082 20.7646C119.254 20.9746 119.501 21.2446 119.652 21.3796C119.802 21.4996 119.953 21.7997 119.985 22.0397C120.017 22.2797 119.996 22.6397 119.942 22.8497C119.888 23.0598 119.415 23.8248 118.888 24.5749C118.361 25.325 117.92 26.045 117.931 26.1951C117.931 26.3301 117.845 26.4651 117.748 26.4951C117.641 26.5251 117.318 27.0501 117.038 27.6652C116.759 28.2803 116.2 29.5404 115.802 30.4705C115.404 31.4005 114.974 32.4206 114.844 32.7207C114.715 33.0207 114.479 33.6507 114.328 34.1008C114.167 34.5508 113.941 35.1209 113.812 35.3759C113.683 35.6309 113.425 36.261 113.242 36.801C113.059 37.3411 112.769 37.9711 112.597 38.1962C112.339 38.5562 112.22 38.6162 111.909 38.5412C111.704 38.4962 111.36 38.3012 111.156 38.1212C110.951 37.9261 110.672 37.4761 110.295 36.426L110.5 35.4509C110.618 34.9109 110.79 34.3708 110.887 34.2508C110.984 34.1308 111.059 33.9658 111.048 33.8758C111.048 33.7858 111.339 33.0057 111.694 32.1206C112.048 31.2205 112.339 30.4104 112.339 30.3204C112.339 30.2154 112.22 29.9604 112.07 29.7504C111.919 29.5404 111.672 28.9403 111.521 28.4003C111.371 27.8602 111.145 26.7501 111.027 25.925C110.908 25.1 110.801 24.1249 110.779 23.7498C110.769 23.3748 110.726 22.6397 110.672 22.0997C110.607 21.2296 110.618 21.0796 110.822 20.7196C110.951 20.4795 111.145 20.2995 111.263 20.2995C111.382 20.2995 111.769 20.4945 112.124 20.7496C112.479 21.0046 112.909 21.4246 113.092 21.6796C113.274 21.9647 113.414 22.3397 113.414 22.5497C113.414 22.7597 113.457 23.1198 113.511 23.3748C113.565 23.6298 113.672 24.2599 113.758 24.7849C113.834 25.325 113.952 25.865 114.016 25.985C114.113 26.1801 114.221 26.06 114.662 25.25C114.952 24.7099 115.275 24.0349 115.382 23.7498C115.49 23.4648 115.974 22.6547 116.458 21.9647Z" fill="#221111"/>
<path d="M82.9798 21.1396C83.5391 21.0196 84.4101 20.8096 84.9156 20.7046C85.421 20.5845 85.9265 20.5245 86.0448 20.5695C86.1631 20.6145 86.3781 20.6445 86.5287 20.6295C86.6793 20.6295 86.9374 20.8096 87.1202 21.0346C87.303 21.2746 87.5504 21.4996 87.6902 21.5596C87.8837 21.6496 87.9268 21.7696 87.9268 22.2647C87.9268 22.7597 87.8515 22.9698 87.5289 23.4348C87.2815 23.7798 86.9051 24.1099 86.5825 24.2599C86.2921 24.3949 85.5823 24.6049 85.0231 24.7399C84.4639 24.8749 83.8079 25.1 83.5713 25.25C83.3347 25.4 82.9046 25.565 82.6034 25.625C82.3131 25.685 81.9044 25.82 81.7108 25.91C81.399 26.06 81.356 26.1501 81.4205 26.9901L83.0659 26.9601C84.3133 26.9301 84.7005 26.9601 84.7005 27.1101C84.7005 27.2002 84.8511 27.5002 85.0446 27.7702C85.2382 28.0252 85.5286 28.3253 85.7006 28.4003C85.9157 28.5203 85.991 28.6703 85.991 28.9853C86.0018 29.3153 85.8835 29.4954 85.3242 30.0204C84.9479 30.3654 84.4532 30.7705 84.2166 30.9055C83.8724 31.1155 83.4638 31.1755 80.6032 31.1905L80.3128 31.8656C80.1515 32.2406 79.9364 32.7957 79.8289 33.1107C79.7321 33.4107 79.6783 33.6958 79.7321 33.7408C79.7751 33.7858 80.216 33.8158 80.7215 33.8158C81.2269 33.8158 82.1733 33.7108 82.8185 33.5907C83.4745 33.4857 84.3671 33.2757 85.6146 32.9007L85.991 33.4257C86.1953 33.7258 86.4212 33.9658 86.4749 33.9658C86.5395 33.9658 86.6685 34.2208 86.7653 34.5208C86.9481 35.0909 86.9481 35.0909 86.6255 35.7359C86.4534 36.081 86.1093 36.531 85.862 36.726C85.6039 36.921 85.0339 37.2061 84.593 37.3411C84.152 37.4761 83.3025 37.6561 82.711 37.7311C82.1195 37.8211 81.1731 37.9261 80.6139 37.9711C79.9902 38.0162 79.3664 37.9861 79.0008 37.8811C78.6782 37.7761 78.248 37.5811 78.0437 37.4461C77.8393 37.3111 77.549 36.9211 77.4092 36.591C77.2586 36.261 77.0758 35.5109 76.9897 34.9409C76.9145 34.3708 76.8499 33.5607 76.8499 33.1407C76.8499 32.6607 76.9252 32.2256 77.065 31.9106C77.1833 31.6406 77.2801 31.3255 77.2801 31.2355C77.2801 31.1305 77.3446 30.9355 77.4307 30.8155C77.506 30.6955 77.8178 29.8254 78.6782 27.2152L78.4738 26.8101C78.3663 26.5701 78.2372 26.2251 78.1942 26.015C78.1405 25.805 78.0437 25.16 77.8393 23.5398L78.1727 23.1198C78.3663 22.8948 78.8292 22.5796 79.2163 22.4295C79.6036 22.2795 80.3775 21.9796 80.9365 21.7546C81.4958 21.5446 82.4206 21.2746 82.9798 21.1396Z" fill="#221111"/>
<path fill-rule="evenodd" clip-rule="evenodd" d="M93.2501 20.3745C93.0135 20.4945 92.6048 20.8846 92.3467 21.2296C92.0886 21.5896 91.5509 22.4747 91.153 23.2248C90.7551 23.9749 90.3249 24.7099 90.2066 24.8749C90.0346 25.1 89.9378 25.13 89.841 25.0099C89.7657 24.9199 89.5937 24.7999 89.4646 24.7399C89.2818 24.6799 89.1742 24.7399 89.0667 24.9799C88.9807 25.175 88.7333 26.4051 88.5182 27.7252C88.2924 29.0453 88.0666 30.5005 88.0128 30.9505C87.959 31.4005 87.8945 31.9706 87.873 32.2256C87.8515 32.4806 87.7654 33.0807 87.6687 33.5757C87.5826 34.0708 87.4966 34.6408 87.4858 34.8509C87.4643 35.0609 87.5074 35.3609 87.5719 35.5259C87.6364 35.6909 87.7332 36.096 87.7762 36.426C87.8192 36.756 87.959 37.1611 88.0773 37.3261C88.2064 37.4911 88.4215 37.7161 88.572 37.8211C88.7978 37.9861 88.9054 37.9561 89.3033 37.7011C89.6689 37.4611 89.8087 37.2511 90.0131 36.606C90.1529 36.186 90.2927 35.6009 90.3357 35.3309C90.368 35.0759 90.454 34.8509 90.5078 34.8509C90.5615 34.8509 90.7981 35.0759 91.024 35.3609C91.239 35.6309 91.6692 36.066 91.9596 36.321C92.2607 36.576 93.0565 37.0861 93.734 37.4461C94.4115 37.8061 95.3149 38.2262 95.7235 38.3762C96.143 38.5112 96.7452 38.6162 97.0678 38.6162C97.412 38.6162 97.7668 38.5112 97.9066 38.3762C98.0357 38.2562 98.197 38.0012 98.2723 37.8061C98.3368 37.6261 98.4121 37.1761 98.4336 36.801C98.4551 36.351 98.4013 35.916 98.2508 35.4809C98.0464 34.8959 98.0034 34.8509 97.5302 34.7759C97.2399 34.7308 96.4548 34.5208 95.7773 34.3108C95.0998 34.0858 94.3255 33.7708 94.0566 33.5907C93.7878 33.3957 93.3684 33.0657 93.121 32.8557C92.8629 32.6307 92.6586 32.3906 92.6586 32.3006C92.6586 32.2106 92.8414 32.0606 93.0673 31.9406C93.2823 31.8356 93.7555 31.6256 94.1104 31.4755C94.4653 31.3405 95.046 31.0405 95.4009 30.8155C95.7558 30.5905 96.3043 30.0804 96.6161 29.6754C96.9495 29.2403 97.2291 28.7003 97.3044 28.4003C97.3689 28.1152 97.4227 27.5752 97.412 27.2002C97.412 26.8101 97.2721 26.03 97.0678 25.325C96.885 24.6649 96.5946 23.7798 96.4441 23.3748C96.2828 22.9548 96.0569 22.5197 95.9386 22.3997C95.8203 22.2797 95.6268 22.0097 95.5085 21.8297C95.3902 21.6346 94.9923 21.1696 94.6266 20.8096C94.2502 20.4495 93.8846 20.1495 93.8201 20.1495C93.7448 20.1645 93.4867 20.2545 93.2501 20.3745ZM91.723 28.0252C91.7552 27.7702 92.0994 27.0651 92.5403 26.3301C92.9597 25.655 93.3791 25.1 93.4544 25.1C93.5404 25.1 93.7448 25.265 93.9168 25.445C94.0782 25.64 94.261 26.015 94.3148 26.2701C94.3793 26.5251 94.4223 26.8401 94.4223 26.9751C94.4223 27.1401 94.1642 27.3652 93.6695 27.6652C93.2608 27.9052 92.6479 28.2052 92.3252 28.3253C92.0026 28.4453 91.723 28.5203 91.7015 28.5053C91.68 28.4903 91.6907 28.2803 91.723 28.0252Z" fill="#221111"/>
<path fill-rule="evenodd" clip-rule="evenodd" d="M101.853 20.7346C102.445 20.5545 103.359 20.3595 103.897 20.2995C104.434 20.2395 105.133 20.2095 105.456 20.2395C105.779 20.2695 106.273 20.3445 106.542 20.4045C106.822 20.4645 107.166 20.6745 107.295 20.8546C107.435 21.0496 107.607 21.1996 107.661 21.1996C107.714 21.1996 108.016 21.5446 108.317 21.9797C108.618 22.4147 108.93 23.0148 108.994 23.2998C109.059 23.5848 109.113 23.9899 109.113 24.1999C109.113 24.4099 108.994 24.9049 108.844 25.325C108.704 25.73 108.231 26.5851 107.037 28.3253L107.607 29.0003C107.93 29.3754 108.392 29.9604 108.65 30.3054C108.908 30.6655 109.22 31.2355 109.338 31.5806C109.467 31.9406 109.596 32.5556 109.618 32.9757C109.65 33.6657 109.618 33.7858 109.188 34.5508C108.801 35.2409 108.543 35.5109 107.553 36.231C106.897 36.696 106.005 37.2211 105.564 37.3861C105.123 37.5511 104.563 37.7911 104.327 37.9261C104.09 38.0762 103.585 38.2112 103.198 38.2412C102.606 38.3012 102.423 38.2412 101.531 37.5361L101.294 37.9261C101.122 38.1962 100.95 38.2862 100.735 38.2562C100.563 38.2412 100.262 38.0161 100.057 37.7611C99.8639 37.4911 99.6488 37.1911 99.595 37.0861C99.5413 36.9661 99.4122 36.636 99.3154 36.351C99.2079 36.051 99.1541 35.6309 99.1864 35.3759C99.2187 35.1209 99.2939 34.8359 99.337 34.7308C99.3907 34.6408 99.4122 34.4608 99.3907 34.3558C99.3692 34.2658 99.4445 33.7858 99.552 33.3057C99.6596 32.8407 99.8209 32.3006 99.9069 32.1206C99.993 31.9256 100.219 30.8605 100.402 29.7504C100.595 28.6403 100.843 27.3652 100.95 26.9451C101.058 26.5101 101.154 25.955 101.154 25.7C101.154 25.445 101.133 25.25 101.101 25.25C101.068 25.25 100.961 25.31 100.864 25.385C100.757 25.445 100.638 25.685 100.595 25.91C100.531 26.1951 100.412 26.3301 100.165 26.3901C99.8962 26.4651 99.6918 26.4051 99.3262 26.1201C99.0573 25.91 98.6809 25.475 98.4874 25.16C98.2938 24.8449 98.068 24.3499 97.9819 24.0949C97.8421 23.6598 97.8421 23.5548 97.9819 23.1498C98.068 22.8948 98.3261 22.5197 98.5519 22.2797C98.767 22.0547 99.3585 21.6796 99.8639 21.4546C100.369 21.2296 101.262 20.9146 101.853 20.7346ZM104.058 30.6955L103.155 31.0255C102.477 33.6357 102.316 34.4458 102.359 34.5058C102.402 34.5808 102.671 34.5508 102.95 34.4458C103.23 34.3558 104.058 33.9058 104.8 33.4707C105.779 32.8707 106.284 32.4806 106.661 31.9856C106.94 31.6256 107.166 31.2655 107.166 31.1755C107.166 31.0855 106.983 30.9055 106.768 30.7555C106.542 30.5905 106.048 30.4405 105.66 30.4104C105.166 30.3654 104.703 30.4405 104.058 30.6955ZM103.155 24.1849C103.563 24.0049 104.101 23.8098 104.37 23.7498C104.639 23.6898 105.08 23.6298 105.37 23.6148C105.65 23.6148 105.876 23.6748 105.876 23.7498C105.876 23.8248 105.596 24.2599 105.252 24.6799C104.908 25.115 104.381 25.655 103.51 26.3001L103.165 25.805C102.972 25.535 102.692 25.22 102.552 25.1C102.402 24.9649 102.316 24.7999 102.359 24.6949C102.402 24.5899 102.757 24.3499 103.155 24.1849Z" fill="#221111"/>
<path d="M34.1497 12.4388C34.3376 12.3614 35.2756 12.1785 36.2516 12.0545L36.2359 12.0532C37.6325 11.8895 42.5805 9.62611 44.5668 9.84497C46.2732 10.0223 47.3548 10.2225 47.9626 10.4952C48.4538 10.7027 49.2102 11.1361 49.6331 11.4679C50.2547 11.9459 50.4606 12.2413 50.6566 12.9814C50.8075 13.5136 51.122 14.1149 51.4222 14.4181C51.7949 14.7643 52.0177 15.2467 52.1539 15.9633C52.2673 16.5296 52.325 17.2398 52.2892 17.5524C52.2376 17.8638 51.8838 18.5587 51.4666 19.1557C51.0681 19.7356 50.085 20.7687 49.3039 21.4471C48.5041 22.1425 47.3785 22.9783 46.7965 23.3203C46.2144 23.6624 45.4666 24.1393 45.1414 24.3725C44.8319 24.607 44.5417 24.9173 44.5235 25.0272C44.5023 25.1554 43.827 25.6754 43.0449 26.1681C42.247 26.6595 41.2967 27.3983 40.9442 27.7963C40.3577 28.4536 40.3081 28.5609 40.5256 28.6901C40.6736 28.758 41.6223 28.7988 42.6364 28.7336C43.6474 28.6867 46.0677 28.4915 46.7108 28.3587C47.3538 28.2259 48.3298 28.1018 48.9075 28.075C49.4853 28.0482 50.3138 27.9492 50.7779 27.8388C51.2264 27.7272 51.9733 27.64 52.432 27.6591C53.2079 27.6857 53.2804 27.7288 53.6203 28.3694C53.8141 28.738 53.9776 29.2898 53.9732 29.6051C53.9689 29.9203 54.0907 30.3387 54.2302 30.5544C54.3697 30.7701 54.4632 31.1676 54.4021 31.441C54.3536 31.7341 54.1552 32.1633 53.9556 32.4068C53.7688 32.67 53.4 32.9738 53.1274 33.0814C52.8675 33.2086 52.4723 33.2875 52.2209 33.2668C51.9883 33.2291 51.6686 33.3328 51.5156 33.4873C51.3657 33.6235 50.7323 33.7943 50.1014 33.8539C49.4893 33.9116 47.5068 34.1888 45.6325 34.4509L45.4601 34.4751C43.5335 34.7623 38.758 35.4162 37.8727 35.4734C36.5227 35.5481 37.7313 35.4618 36.5766 35.1256C35.831 34.9158 35.0063 34.6067 34.7792 34.4396C34.4796 34.2293 34.2664 33.7848 34.0607 33.0068C33.7971 32.0012 33.8015 31.686 34.0439 30.2207C34.1924 29.3232 34.4152 28.2648 34.5417 27.8854C34.7117 27.4352 36.6362 26.4028 37.6598 25.3173C38.4899 24.4387 40.2634 23.1672 40.9442 22.5177C41.6406 21.8695 42.8031 20.9068 43.5068 20.4077C44.2261 19.9098 44.9444 19.5774 45.4601 19.1557C45.9757 18.7339 46.3497 18.1704 47.0276 17.3987C47.7055 16.627 47.8902 16.7084 47.9084 16.5985C47.9327 16.452 46.7805 15.0949 46.3497 15.0038C45.9533 14.897 45.1363 14.8299 44.5145 14.8345C43.8957 14.8208 38.6533 17.2271 37.8471 17.3836C36.5139 17.6454 36.2407 17.6601 35.1398 17.384C34.3441 17.1887 33.8402 16.9617 33.688 16.7264C33.5612 16.5303 33.4575 16.002 33.4547 15.5376C33.4519 15.0733 33.5224 14.2623 33.5915 13.7481C33.6945 13.1254 33.4751 13.2002 33.7551 12.7591C33.9946 12.3703 33.9617 12.5162 34.1497 12.4388Z" fill="#221111"/>
<path d="M12.4137 20.9072C12.8118 20.738 13.6301 20.4764 14.2383 20.3072C14.8465 20.1533 15.7754 20.0149 17.2793 19.9995L17.9981 20.8919C18.3962 21.3688 18.7279 21.815 18.7169 21.8919C18.7169 21.9535 18.7943 21.9996 18.8827 21.9996C18.9712 21.9996 19.0486 21.8612 19.0486 21.6919C19.0486 21.5227 19.2255 21.1996 19.4688 20.938C19.69 20.7072 19.9885 20.4303 20.1323 20.3226C20.265 20.2303 20.453 20.1533 20.5414 20.1533C20.652 20.1533 20.7847 20.5072 20.9174 21.1996C21.0391 21.7688 21.216 22.3381 21.3155 22.4612C21.4261 22.6151 21.4924 22.9382 21.4924 23.3843C21.4814 23.769 21.5588 24.2613 21.6473 24.5075C21.8021 24.8921 21.78 25.046 21.3155 26.9692C21.0391 28.077 20.7073 29.754 20.5746 30.6926C20.3756 32.1542 20.3535 32.7081 20.4198 34.7698C20.4862 36.9084 20.4751 37.2007 20.2982 37.5238C20.1876 37.7392 19.9332 38.0008 19.7453 38.1085C19.5462 38.2162 19.1592 38.3085 18.8827 38.3085C18.3851 38.3085 18.3851 38.3085 18.1197 37.5084C17.976 37.0622 17.7437 36.1699 17.6 35.5391C17.3899 34.6005 17.3567 34.0928 17.3678 32.7696C17.3899 31.8773 17.4452 30.7079 17.5005 30.1541C17.5557 29.6002 17.7548 28.4616 17.9538 27.6154C18.1418 26.7692 18.3077 25.723 18.3188 25.2768C18.3188 24.8306 18.3962 24.3844 18.4736 24.2767C18.551 24.169 18.6063 23.969 18.6063 23.8459C18.6063 23.6459 18.4183 23.6305 17.4673 23.6613C16.848 23.6921 15.7201 23.8459 14.9571 24.0305C14.1941 24.1998 13.2763 24.4767 12.9113 24.646C12.5464 24.8152 12.1815 25.0306 12.1041 25.1229C12.0267 25.2306 11.9161 25.5845 11.8608 25.923C11.8055 26.2615 11.6618 26.9538 11.5291 27.4616C11.4074 27.9693 11.3079 28.5232 11.3079 28.6924C11.3079 28.9847 11.3521 29.0001 12.2147 28.877C12.7233 28.8155 13.6191 28.7232 14.2162 28.6463C15.2004 28.5539 15.2888 28.5693 15.2888 28.8155C15.2888 28.954 15.3773 29.1694 15.4879 29.2771C15.5985 29.3694 15.7754 29.6309 15.8749 29.8463C16.0518 30.2156 16.0408 30.2618 15.6206 31.1234C15.2999 31.7542 15.0898 32.0157 14.8797 32.0773C14.7027 32.108 14.0946 32.2465 13.5195 32.385C12.9445 32.5081 12.0488 32.7235 11.5291 32.8619C11.0093 33.0004 10.4564 33.1235 10.2906 33.1697C10.1136 33.2004 9.95881 33.2774 9.93669 33.3543C9.90352 33.4158 9.74871 33.9543 9.58283 34.539C9.38379 35.2467 9.28426 35.8622 9.29532 36.3545C9.30638 36.7545 9.24003 37.2777 9.15157 37.5392C9.0631 37.8008 8.87511 38.0777 8.74242 38.17C8.54337 38.3085 8.35538 38.2931 7.95729 38.1393C7.51496 37.9546 7.36015 37.8008 7.09475 37.2315C6.91782 36.8468 6.74089 36.2622 6.70772 35.9237C6.67455 35.5237 6.72984 34.939 7.10581 33.2312L6.80724 32.9696C6.65243 32.8158 6.39809 32.3542 6.25434 31.9234C6.12164 31.508 6 30.9541 6 30.6926C6 30.431 6.09952 30.0156 6.22116 29.754C6.35386 29.4925 6.61926 29.1694 6.82936 29.0309C7.03946 28.8924 7.31592 28.7693 7.43756 28.7693C7.5592 28.7693 7.78036 28.877 7.93517 29.0001C8.08999 29.1232 8.23374 29.1848 8.25586 29.1232C8.27798 29.0463 8.41067 28.6155 8.53231 28.1539C8.66501 27.6923 8.76453 27.1846 8.76453 27.0461C8.76453 26.8769 8.63183 26.7077 8.46596 26.6153C8.28903 26.5384 7.97941 26.1384 7.7693 25.7384C7.48179 25.1845 7.38227 24.8152 7.36015 24.2767C7.33803 23.7382 7.38227 23.4459 7.52602 23.2305C7.6366 23.0612 8.44385 22.6151 9.48331 22.1381C10.4564 21.7073 11.3521 21.3227 11.4738 21.2765C11.5954 21.2457 12.0156 21.0765 12.4137 20.9072Z" stroke="#F7FEFF" stroke-width="2.72" mask="url(#path-6-outside-1_199_10726)"/>
<path d="M31.3231 20.4611C32.2078 20.3072 33.1035 20.138 33.3136 20.0918C33.5237 20.061 34.0987 20.061 34.5853 20.0918C35.4478 20.1687 35.481 20.1841 35.9454 20.8149C36.2108 21.1688 36.4983 21.6458 36.5868 21.8765C36.6753 22.1227 36.7416 22.4612 36.7416 22.6458C36.7305 22.8458 36.6531 23.1382 36.5426 23.3074C36.443 23.4767 36.1223 23.7074 35.8348 23.7998C35.5363 23.9075 35.0718 23.9998 34.7843 23.9998C34.4857 23.9998 33.5126 24.1382 32.5948 24.3075C31.688 24.4767 30.9361 24.6306 30.925 24.646C30.925 24.6767 30.6928 25.4614 30.4053 26.3846C30.1178 27.3077 29.8856 28.1231 29.8856 28.1847C29.8856 28.2616 29.7307 28.7693 29.5428 29.3386C29.3548 29.9233 29.1004 30.6618 28.9899 31.0003C28.8793 31.3388 28.636 32.108 28.4591 32.6927C28.2821 33.2774 28.0831 34.139 28.0167 34.5698C27.9504 35.0159 27.8951 35.4775 27.8951 35.5698C27.9062 35.6775 28.1163 36.0314 28.835 36.9084L28.7023 37.5392C28.5918 38.0162 28.4701 38.2008 28.1716 38.3854C27.9614 38.5085 27.6739 38.6162 27.5412 38.6162C27.3975 38.6162 26.9994 38.4008 26.6566 38.1239C26.2696 37.8162 26.0263 37.5084 26.0152 37.3546C26.0152 37.2007 25.982 37.0469 25.9378 37.0161C25.8825 36.9853 25.7498 36.4776 25.6392 35.9083C25.4844 35.1237 25.4402 34.5698 25.4844 33.7697C25.5287 33.0004 25.7277 32.0157 26.159 30.3848C26.4797 29.1232 26.933 27.5539 27.1542 26.9231C27.3754 26.2922 27.5634 25.6307 27.5634 25.4614C27.5634 25.1845 27.5191 25.1691 27.2095 25.2768C27.0104 25.3383 26.2253 25.4306 24.08 25.5845L23.7151 25.1383C23.494 24.8768 23.2617 24.3536 23.129 23.8921C23.0185 23.4459 22.9189 22.892 22.9189 22.6612C22.9189 22.415 22.9742 22.0458 23.0516 21.815C23.1954 21.3996 23.2065 21.3842 24.2459 21.3842C24.8209 21.3842 26.0152 21.2765 26.8999 21.1534C28.2821 20.9534 28.5254 20.8919 28.6471 20.6149C28.7134 20.4457 28.8793 20.3072 29.0009 20.3072C29.1226 20.3072 29.3327 20.4149 29.4764 20.538C29.6976 20.738 29.8856 20.738 31.3231 20.4611Z" stroke="#F7FEFF" stroke-width="2.72" mask="url(#path-6-outside-1_199_10726)"/>
<path d="M116.458 21.9647C117.017 21.1696 117.544 20.5695 117.877 20.3595C118.178 20.1645 118.501 19.9995 118.608 19.9995C118.705 19.9995 118.791 20.0895 118.791 20.1945C118.791 20.2845 118.92 20.5545 119.082 20.7646C119.254 20.9746 119.501 21.2446 119.652 21.3796C119.802 21.4996 119.953 21.7997 119.985 22.0397C120.017 22.2797 119.996 22.6397 119.942 22.8497C119.888 23.0598 119.415 23.8248 118.888 24.5749C118.361 25.325 117.92 26.045 117.931 26.1951C117.931 26.3301 117.845 26.4651 117.748 26.4951C117.641 26.5251 117.318 27.0501 117.038 27.6652C116.759 28.2803 116.2 29.5404 115.802 30.4705C115.404 31.4005 114.974 32.4206 114.844 32.7207C114.715 33.0207 114.479 33.6507 114.328 34.1008C114.167 34.5508 113.941 35.1209 113.812 35.3759C113.683 35.6309 113.425 36.261 113.242 36.801C113.059 37.3411 112.769 37.9711 112.597 38.1962C112.339 38.5562 112.22 38.6162 111.909 38.5412C111.704 38.4962 111.36 38.3012 111.156 38.1212C110.951 37.9261 110.672 37.4761 110.295 36.426L110.5 35.4509C110.618 34.9109 110.79 34.3708 110.887 34.2508C110.984 34.1308 111.059 33.9658 111.048 33.8758C111.048 33.7858 111.339 33.0057 111.694 32.1206C112.048 31.2205 112.339 30.4104 112.339 30.3204C112.339 30.2154 112.22 29.9604 112.07 29.7504C111.919 29.5404 111.672 28.9403 111.521 28.4003C111.371 27.8602 111.145 26.7501 111.027 25.925C110.908 25.1 110.801 24.1249 110.779 23.7498C110.769 23.3748 110.726 22.6397 110.672 22.0997C110.607 21.2296 110.618 21.0796 110.822 20.7196C110.951 20.4795 111.145 20.2995 111.263 20.2995C111.382 20.2995 111.769 20.4945 112.124 20.7496C112.479 21.0046 112.909 21.4246 113.092 21.6796C113.274 21.9647 113.414 22.3397 113.414 22.5497C113.414 22.7597 113.457 23.1198 113.511 23.3748C113.565 23.6298 113.672 24.2599 113.758 24.7849C113.834 25.325 113.952 25.865 114.016 25.985C114.113 26.1801 114.221 26.06 114.662 25.25C114.952 24.7099 115.275 24.0349 115.382 23.7498C115.49 23.4648 115.974 22.6547 116.458 21.9647Z" stroke="#F7FEFF" stroke-width="2.72" mask="url(#path-6-outside-1_199_10726)"/>
<path d="M82.9798 21.1396C83.5391 21.0196 84.4101 20.8096 84.9156 20.7046C85.421 20.5845 85.9265 20.5245 86.0448 20.5695C86.1631 20.6145 86.3781 20.6445 86.5287 20.6295C86.6793 20.6295 86.9374 20.8096 87.1202 21.0346C87.303 21.2746 87.5504 21.4996 87.6902 21.5596C87.8837 21.6496 87.9268 21.7696 87.9268 22.2647C87.9268 22.7597 87.8515 22.9698 87.5289 23.4348C87.2815 23.7798 86.9051 24.1099 86.5825 24.2599C86.2921 24.3949 85.5823 24.6049 85.0231 24.7399C84.4639 24.8749 83.8079 25.1 83.5713 25.25C83.3347 25.4 82.9046 25.565 82.6034 25.625C82.3131 25.685 81.9044 25.82 81.7108 25.91C81.399 26.06 81.356 26.1501 81.4205 26.9901L83.0659 26.9601C84.3133 26.9301 84.7005 26.9601 84.7005 27.1101C84.7005 27.2002 84.8511 27.5002 85.0446 27.7702C85.2382 28.0252 85.5286 28.3253 85.7006 28.4003C85.9157 28.5203 85.991 28.6703 85.991 28.9853C86.0018 29.3153 85.8835 29.4954 85.3242 30.0204C84.9479 30.3654 84.4532 30.7705 84.2166 30.9055C83.8724 31.1155 83.4638 31.1755 80.6032 31.1905L80.3128 31.8656C80.1515 32.2406 79.9364 32.7957 79.8289 33.1107C79.7321 33.4107 79.6783 33.6958 79.7321 33.7408C79.7751 33.7858 80.216 33.8158 80.7215 33.8158C81.2269 33.8158 82.1733 33.7108 82.8185 33.5907C83.4745 33.4857 84.3671 33.2757 85.6146 32.9007L85.991 33.4257C86.1953 33.7258 86.4212 33.9658 86.4749 33.9658C86.5395 33.9658 86.6685 34.2208 86.7653 34.5208C86.9481 35.0909 86.9481 35.0909 86.6255 35.7359C86.4534 36.081 86.1093 36.531 85.862 36.726C85.6039 36.921 85.0339 37.2061 84.593 37.3411C84.152 37.4761 83.3025 37.6561 82.711 37.7311C82.1195 37.8211 81.1731 37.9261 80.6139 37.9711C79.9902 38.0162 79.3664 37.9861 79.0008 37.8811C78.6782 37.7761 78.248 37.5811 78.0437 37.4461C77.8393 37.3111 77.549 36.9211 77.4092 36.591C77.2586 36.261 77.0758 35.5109 76.9897 34.9409C76.9145 34.3708 76.8499 33.5607 76.8499 33.1407C76.8499 32.6607 76.9252 32.2256 77.065 31.9106C77.1833 31.6406 77.2801 31.3255 77.2801 31.2355C77.2801 31.1305 77.3446 30.9355 77.4307 30.8155C77.506 30.6955 77.8178 29.8254 78.6782 27.2152L78.4738 26.8101C78.3663 26.5701 78.2372 26.2251 78.1942 26.015C78.1405 25.805 78.0437 25.16 77.8393 23.5398L78.1727 23.1198C78.3663 22.8948 78.8292 22.5796 79.2163 22.4295C79.6036 22.2795 80.3775 21.9796 80.9365 21.7546C81.4958 21.5446 82.4206 21.2746 82.9798 21.1396Z" stroke="#F7FEFF" stroke-width="2.72" mask="url(#path-6-outside-1_199_10726)"/>
<path fill-rule="evenodd" clip-rule="evenodd" d="M93.2501 20.3745C93.0135 20.4945 92.6048 20.8846 92.3467 21.2296C92.0886 21.5896 91.5509 22.4747 91.153 23.2248C90.7551 23.9749 90.3249 24.7099 90.2066 24.8749C90.0346 25.1 89.9378 25.13 89.841 25.0099C89.7657 24.9199 89.5937 24.7999 89.4646 24.7399C89.2818 24.6799 89.1742 24.7399 89.0667 24.9799C88.9807 25.175 88.7333 26.4051 88.5182 27.7252C88.2924 29.0453 88.0666 30.5005 88.0128 30.9505C87.959 31.4005 87.8945 31.9706 87.873 32.2256C87.8515 32.4806 87.7654 33.0807 87.6687 33.5757C87.5826 34.0708 87.4966 34.6408 87.4858 34.8509C87.4643 35.0609 87.5074 35.3609 87.5719 35.5259C87.6364 35.6909 87.7332 36.096 87.7762 36.426C87.8192 36.756 87.959 37.1611 88.0773 37.3261C88.2064 37.4911 88.4215 37.7161 88.572 37.8211C88.7978 37.9861 88.9054 37.9561 89.3033 37.7011C89.6689 37.4611 89.8087 37.2511 90.0131 36.606C90.1529 36.186 90.2927 35.6009 90.3357 35.3309C90.368 35.0759 90.454 34.8509 90.5078 34.8509C90.5615 34.8509 90.7981 35.0759 91.024 35.3609C91.239 35.6309 91.6692 36.066 91.9596 36.321C92.2607 36.576 93.0565 37.0861 93.734 37.4461C94.4115 37.8061 95.3149 38.2262 95.7235 38.3762C96.143 38.5112 96.7452 38.6162 97.0678 38.6162C97.412 38.6162 97.7668 38.5112 97.9066 38.3762C98.0357 38.2562 98.197 38.0012 98.2723 37.8061C98.3368 37.6261 98.4121 37.1761 98.4336 36.801C98.4551 36.351 98.4013 35.916 98.2508 35.4809C98.0464 34.8959 98.0034 34.8509 97.5302 34.7759C97.2399 34.7308 96.4548 34.5208 95.7773 34.3108C95.0998 34.0858 94.3255 33.7708 94.0566 33.5907C93.7878 33.3957 93.3684 33.0657 93.121 32.8557C92.8629 32.6307 92.6586 32.3906 92.6586 32.3006C92.6586 32.2106 92.8414 32.0606 93.0673 31.9406C93.2823 31.8356 93.7555 31.6256 94.1104 31.4755C94.4653 31.3405 95.046 31.0405 95.4009 30.8155C95.7558 30.5905 96.3043 30.0804 96.6161 29.6754C96.9495 29.2403 97.2291 28.7003 97.3044 28.4003C97.3689 28.1152 97.4227 27.5752 97.412 27.2002C97.412 26.8101 97.2721 26.03 97.0678 25.325C96.885 24.6649 96.5946 23.7798 96.4441 23.3748C96.2828 22.9548 96.0569 22.5197 95.9386 22.3997C95.8203 22.2797 95.6268 22.0097 95.5085 21.8297C95.3902 21.6346 94.9923 21.1696 94.6266 20.8096C94.2502 20.4495 93.8846 20.1495 93.8201 20.1495C93.7448 20.1645 93.4867 20.2545 93.2501 20.3745ZM91.723 28.0252C91.7552 27.7702 92.0994 27.0651 92.5403 26.3301C92.9597 25.655 93.3791 25.1 93.4544 25.1C93.5404 25.1 93.7448 25.265 93.9168 25.445C94.0782 25.64 94.261 26.015 94.3148 26.2701C94.3793 26.5251 94.4223 26.8401 94.4223 26.9751C94.4223 27.1401 94.1642 27.3652 93.6695 27.6652C93.2608 27.9052 92.6479 28.2052 92.3252 28.3253C92.0026 28.4453 91.723 28.5203 91.7015 28.5053C91.68 28.4903 91.6907 28.2803 91.723 28.0252Z" stroke="#F7FEFF" stroke-width="2.72" mask="url(#path-6-outside-1_199_10726)"/>
<path fill-rule="evenodd" clip-rule="evenodd" d="M101.853 20.7346C102.445 20.5545 103.359 20.3595 103.897 20.2995C104.434 20.2395 105.133 20.2095 105.456 20.2395C105.779 20.2695 106.273 20.3445 106.542 20.4045C106.822 20.4645 107.166 20.6745 107.295 20.8546C107.435 21.0496 107.607 21.1996 107.661 21.1996C107.714 21.1996 108.016 21.5446 108.317 21.9797C108.618 22.4147 108.93 23.0148 108.994 23.2998C109.059 23.5848 109.113 23.9899 109.113 24.1999C109.113 24.4099 108.994 24.9049 108.844 25.325C108.704 25.73 108.231 26.5851 107.037 28.3253L107.607 29.0003C107.93 29.3754 108.392 29.9604 108.65 30.3054C108.908 30.6655 109.22 31.2355 109.338 31.5806C109.467 31.9406 109.596 32.5556 109.618 32.9757C109.65 33.6657 109.618 33.7858 109.188 34.5508C108.801 35.2409 108.543 35.5109 107.553 36.231C106.897 36.696 106.005 37.2211 105.564 37.3861C105.123 37.5511 104.563 37.7911 104.327 37.9261C104.09 38.0762 103.585 38.2112 103.198 38.2412C102.606 38.3012 102.423 38.2412 101.531 37.5361L101.294 37.9261C101.122 38.1962 100.95 38.2862 100.735 38.2562C100.563 38.2412 100.262 38.0161 100.057 37.7611C99.8639 37.4911 99.6488 37.1911 99.595 37.0861C99.5413 36.9661 99.4122 36.636 99.3154 36.351C99.2079 36.051 99.1541 35.6309 99.1864 35.3759C99.2187 35.1209 99.2939 34.8359 99.337 34.7308C99.3907 34.6408 99.4122 34.4608 99.3907 34.3558C99.3692 34.2658 99.4445 33.7858 99.552 33.3057C99.6596 32.8407 99.8209 32.3006 99.9069 32.1206C99.993 31.9256 100.219 30.8605 100.402 29.7504C100.595 28.6403 100.843 27.3652 100.95 26.9451C101.058 26.5101 101.154 25.955 101.154 25.7C101.154 25.445 101.133 25.25 101.101 25.25C101.068 25.25 100.961 25.31 100.864 25.385C100.757 25.445 100.638 25.685 100.595 25.91C100.531 26.1951 100.412 26.3301 100.165 26.3901C99.8962 26.4651 99.6918 26.4051 99.3262 26.1201C99.0573 25.91 98.6809 25.475 98.4874 25.16C98.2938 24.8449 98.068 24.3499 97.9819 24.0949C97.8421 23.6598 97.8421 23.5548 97.9819 23.1498C98.068 22.8948 98.3261 22.5197 98.5519 22.2797C98.767 22.0547 99.3585 21.6796 99.8639 21.4546C100.369 21.2296 101.262 20.9146 101.853 20.7346ZM104.058 30.6955L103.155 31.0255C102.477 33.6357 102.316 34.4458 102.359 34.5058C102.402 34.5808 102.671 34.5508 102.95 34.4458C103.23 34.3558 104.058 33.9058 104.8 33.4707C105.779 32.8707 106.284 32.4806 106.661 31.9856C106.94 31.6256 107.166 31.2655 107.166 31.1755C107.166 31.0855 106.983 30.9055 106.768 30.7555C106.542 30.5905 106.048 30.4405 105.66 30.4104C105.166 30.3654 104.703 30.4405 104.058 30.6955ZM103.155 24.1849C103.563 24.0049 104.101 23.8098 104.37 23.7498C104.639 23.6898 105.08 23.6298 105.37 23.6148C105.65 23.6148 105.876 23.6748 105.876 23.7498C105.876 23.8248 105.596 24.2599 105.252 24.6799C104.908 25.115 104.381 25.655 103.51 26.3001L103.165 25.805C102.972 25.535 102.692 25.22 102.552 25.1C102.402 24.9649 102.316 24.7999 102.359 24.6949C102.402 24.5899 102.757 24.3499 103.155 24.1849Z" stroke="#F7FEFF" stroke-width="2.72" mask="url(#path-6-outside-1_199_10726)"/>
<path d="M34.1497 12.4388C34.3376 12.3614 35.2756 12.1785 36.2516 12.0545L36.2359 12.0532C37.6325 11.8895 42.5805 9.62611 44.5668 9.84497C46.2732 10.0223 47.3548 10.2225 47.9626 10.4952C48.4538 10.7027 49.2102 11.1361 49.6331 11.4679C50.2547 11.9459 50.4606 12.2413 50.6566 12.9814C50.8075 13.5136 51.122 14.1149 51.4222 14.4181C51.7949 14.7643 52.0177 15.2467 52.1539 15.9633C52.2673 16.5296 52.325 17.2398 52.2892 17.5524C52.2376 17.8638 51.8838 18.5587 51.4666 19.1557C51.0681 19.7356 50.085 20.7687 49.3039 21.4471C48.5041 22.1425 47.3785 22.9783 46.7965 23.3203C46.2144 23.6624 45.4666 24.1393 45.1414 24.3725C44.8319 24.607 44.5417 24.9173 44.5235 25.0272C44.5023 25.1554 43.827 25.6754 43.0449 26.1681C42.247 26.6595 41.2967 27.3983 40.9442 27.7963C40.3577 28.4536 40.3081 28.5609 40.5256 28.6901C40.6736 28.758 41.6223 28.7988 42.6364 28.7336C43.6474 28.6867 46.0677 28.4915 46.7108 28.3587C47.3538 28.2259 48.3298 28.1018 48.9075 28.075C49.4853 28.0482 50.3138 27.9492 50.7779 27.8388C51.2264 27.7272 51.9733 27.64 52.432 27.6591C53.2079 27.6857 53.2804 27.7288 53.6203 28.3694C53.8141 28.738 53.9776 29.2898 53.9732 29.6051C53.9689 29.9203 54.0907 30.3387 54.2302 30.5544C54.3697 30.7701 54.4632 31.1676 54.4021 31.441C54.3536 31.7341 54.1552 32.1633 53.9556 32.4068C53.7688 32.67 53.4 32.9738 53.1274 33.0814C52.8675 33.2086 52.4723 33.2875 52.2209 33.2668C51.9883 33.2291 51.6686 33.3328 51.5156 33.4873C51.3657 33.6235 50.7323 33.7943 50.1014 33.8539C49.4893 33.9116 47.5068 34.1888 45.6325 34.4509L45.4601 34.4751C43.5335 34.7623 38.758 35.4162 37.8727 35.4734C36.5227 35.5481 37.7313 35.4618 36.5766 35.1256C35.831 34.9158 35.0063 34.6067 34.7792 34.4396C34.4796 34.2293 34.2664 33.7848 34.0607 33.0068C33.7971 32.0012 33.8015 31.686 34.0439 30.2207C34.1924 29.3232 34.4152 28.2648 34.5417 27.8854C34.7117 27.4352 36.6362 26.4028 37.6598 25.3173C38.4899 24.4387 40.2634 23.1672 40.9442 22.5177C41.6406 21.8695 42.8031 20.9068 43.5068 20.4077C44.2261 19.9098 44.9444 19.5774 45.4601 19.1557C45.9757 18.7339 46.3497 18.1704 47.0276 17.3987C47.7055 16.627 47.8902 16.7084 47.9084 16.5985C47.9327 16.452 46.7805 15.0949 46.3497 15.0038C45.9533 14.897 45.1363 14.8299 44.5145 14.8345C43.8957 14.8208 38.6533 17.2271 37.8471 17.3836C36.5139 17.6454 36.2407 17.6601 35.1398 17.384C34.3441 17.1887 33.8402 16.9617 33.688 16.7264C33.5612 16.5303 33.4575 16.002 33.4547 15.5376C33.4519 15.0733 33.5224 14.2623 33.5915 13.7481C33.6945 13.1254 33.4751 13.2002 33.7551 12.7591C33.9946 12.3703 33.9617 12.5162 34.1497 12.4388Z" stroke="#F7FEFF" stroke-width="2.72" mask="url(#path-6-outside-1_199_10726)"/>
</g>
<defs>
<filter id="filter0_d_199_10726" x="0.639999" y="0" width="124.72" height="66" filterUnits="userSpaceOnUse" color-interpolation-filters="sRGB">
<feFlood flood-opacity="0" result="BackgroundImageFix"/>
<feColorMatrix in="SourceAlpha" type="matrix" values="0 0 0 0 0 0 0 0 0 0 0 0 0 0 0 0 0 0 127 0" result="hardAlpha"/>
<feOffset dy="4"/>
<feGaussianBlur stdDeviation="2"/>
<feComposite in2="hardAlpha" operator="out"/>
<feColorMatrix type="matrix" values="0 0 0 0 0 0 0 0 0 0 0 0 0 0 0 0 0 0 0.25 0"/>
<feBlend mode="normal" in2="BackgroundImageFix" result="effect1_dropShadow_199_10726"/>
<feBlend mode="normal" in="SourceGraphic" in2="effect1_dropShadow_199_10726" result="shape"/>
</filter>
</defs>
</svg>
